<svg width="48" height="48" viewBox="0 0 48 48" fill="none" xmlns="http://www.w3.org/2000/svg">
<path d="M40.3201 9.99996C38.2 7.87438 35.3897 6.57704 32.3967 6.3423C29.4038 6.10756 26.4256 6.9509 24.0001 8.71996C21.4554 6.82724 18.288 5.96899 15.1359 6.31804C11.9838 6.66709 9.08094 8.19752 7.01201 10.6011C4.94308 13.0047 3.86171 16.103 3.98567 19.272C4.10962 22.441 5.4297 25.4453 7.68006 27.68L20.1001 40.12C21.1401 41.1435 22.5408 41.7172 24.0001 41.7172C25.4593 41.7172 26.86 41.1435 27.9001 40.12L40.3201 27.68C42.6552 25.3305 43.9659 22.1525 43.9659 18.84C43.9659 15.5274 42.6552 12.3494 40.3201 9.99996V9.99996ZM37.5001 24.92L25.0801 37.34C24.9387 37.4827 24.7705 37.596 24.5851 37.6733C24.3998 37.7506 24.2009 37.7904 24.0001 37.7904C23.7992 37.7904 23.6004 37.7506 23.415 37.6733C23.2296 37.596 23.0614 37.4827 22.9201 37.34L10.5001 24.86C8.93158 23.2567 8.05328 21.1029 8.05328 18.86C8.05328 16.617 8.93158 14.4633 10.5001 12.86C12.0984 11.2819 14.254 10.3971 16.5001 10.3971C18.7461 10.3971 20.9018 11.2819 22.5001 12.86C22.686 13.0474 22.9072 13.1962 23.1509 13.2977C23.3946 13.3993 23.656 13.4516 23.9201 13.4516C24.1841 13.4516 24.4455 13.3993 24.6892 13.2977C24.9329 13.1962 25.1541 13.0474 25.3401 12.86C26.9384 11.2819 29.094 10.3971 31.3401 10.3971C33.5861 10.3971 35.7418 11.2819 37.3401 12.86C38.9301 14.4423 39.8372 16.5843 39.8671 18.8273C39.8971 21.0703 39.0473 23.2358 37.5001 24.86V24.92Z" fill="#5C370A"/>
</svg>
