<svg width="114" height="49" viewBox="0 0 114 49" fill="none" xmlns="http://www.w3.org/2000/svg">
<path d="M95.3286 7.13636C95.3286 6.52582 95.5021 6.0996 95.8492 5.85769C96.1962 5.60425 96.7689 5.47754 97.5671 5.47754C97.8563 5.47754 98.0992 5.50634 98.2959 5.56394C98.5041 5.61001 98.6777 5.70217 98.8165 5.84041C98.9669 5.97864 99.0826 6.16296 99.1635 6.39335C99.2561 6.61222 99.3313 6.89445 99.3891 7.24004C99.5279 8.31136 99.6783 9.41725 99.8403 10.5577C100.014 11.6981 100.193 12.8443 100.378 13.9963C100.448 14.5147 100.719 14.7739 101.194 14.7739C101.321 14.7739 101.529 14.7623 101.818 14.7393C102.119 14.7047 102.472 14.6702 102.877 14.6356C103.282 14.5895 103.716 14.5435 104.178 14.4974C104.653 14.4513 105.121 14.411 105.584 14.3764C106.058 14.3304 106.504 14.2958 106.92 14.2728C107.348 14.2382 107.724 14.2209 108.048 14.2209C108.303 14.2209 108.505 14.2728 108.655 14.3764C108.806 14.4686 108.921 14.5953 109.002 14.7566C109.095 14.9063 109.153 15.0791 109.176 15.275C109.211 15.4593 109.228 15.6494 109.228 15.8452C109.228 16.018 109.193 16.1965 109.124 16.3808C109.066 16.5652 108.979 16.7322 108.864 16.882C108.76 17.0202 108.626 17.1354 108.465 17.2275C108.303 17.3197 108.117 17.3658 107.909 17.3658C106.903 17.3658 105.885 17.4003 104.855 17.4695C103.837 17.527 102.819 17.6077 101.801 17.7114C101.281 17.7805 101.02 18.0397 101.02 18.4889C101.02 18.5235 101.026 18.5696 101.038 18.6272C101.049 18.6733 101.055 18.7136 101.055 18.7481C101.194 19.7503 101.321 20.6892 101.437 21.5647C101.564 22.4402 101.668 23.2235 101.749 23.9147C101.842 24.5943 101.911 25.1645 101.957 25.6253C102.015 26.0746 102.044 26.3741 102.044 26.5239C102.044 26.9386 102.004 27.2842 101.923 27.5606C101.842 27.8486 101.709 28.079 101.523 28.2518C101.338 28.4361 101.09 28.5628 100.777 28.632C100.477 28.7126 100.095 28.7529 99.632 28.7529C99.1925 28.7529 98.8685 28.6492 98.6603 28.4419C98.4521 28.2345 98.3364 27.9177 98.3133 27.4915C98.2438 26.1322 98.1339 24.7671 97.9836 23.3963C97.8332 22.0139 97.6596 20.6373 97.463 19.2665C97.3589 18.7712 97.0986 18.5235 96.6821 18.5235C96.6474 18.5235 96.6069 18.5293 96.5606 18.5408C96.5144 18.5523 96.4739 18.5581 96.4392 18.5581C95.7219 18.7193 95.0452 18.8806 94.4089 19.0419C93.7727 19.2032 93.1769 19.3759 92.6216 19.5603C92.3093 19.6639 92.0316 19.7388 91.7887 19.7849C91.5457 19.8195 91.3259 19.8367 91.1293 19.8367C90.8632 19.8367 90.6665 19.7215 90.5393 19.4911C90.412 19.2492 90.3484 18.9497 90.3484 18.5926C90.3484 18.4659 90.36 18.3219 90.3831 18.1606C90.4063 17.9878 90.4525 17.8208 90.5219 17.6595C90.5798 17.4867 90.6723 17.3312 90.7996 17.193C90.9153 17.0432 91.0772 16.9223 91.2855 16.8301C91.7713 16.6343 92.4192 16.4327 93.2289 16.2253C94.0387 16.0065 94.9526 15.8049 95.9707 15.6206C96.202 15.563 96.3813 15.4708 96.5086 15.3441C96.6474 15.2058 96.7168 15.0043 96.7168 14.7393C96.7168 14.6817 96.7168 14.6241 96.7168 14.5665C96.7168 14.4974 96.7052 14.4283 96.6821 14.3592C96.497 13.2994 96.3177 12.3375 96.1442 11.4735C95.9822 10.598 95.8376 9.84923 95.7104 9.22717C95.5947 8.60511 95.5021 8.11553 95.4327 7.75842C95.3633 7.40131 95.3286 7.19396 95.3286 7.13636Z" fill="#5C370A"/>
<path d="M74.5402 15.0331C74.5402 14.5838 74.7427 14.244 75.1476 14.0136C75.5525 13.7717 76.1309 13.6507 76.8828 13.6507C77.0563 13.6507 77.2125 13.6738 77.3513 13.7199C77.4902 13.7659 77.6116 13.8581 77.7157 13.9963C77.8314 14.123 77.9355 14.3016 78.0281 14.532C78.1206 14.7624 78.2132 15.0561 78.3057 15.4132C78.3983 15.8164 78.4908 16.018 78.5834 16.018C78.6644 16.018 78.7627 15.851 78.8784 15.5169C79.0866 14.8603 79.3585 14.2901 79.6939 13.8062C80.041 13.3109 80.4285 12.902 80.8566 12.5794C81.2846 12.2453 81.7473 11.9977 82.2448 11.8364C82.7538 11.6751 83.2859 11.5945 83.8412 11.5945C84.9633 11.5945 86.0103 11.8076 86.982 12.2338C87.9538 12.6485 88.7925 13.2303 89.4981 13.979C90.2038 14.7163 90.7591 15.5918 91.164 16.6055C91.5689 17.6077 91.7713 18.6963 91.7713 19.8713C91.7713 21.1154 91.5515 22.2674 91.1119 23.3272C90.6839 24.387 90.0823 25.3028 89.3073 26.0746C88.5322 26.8349 87.6067 27.4282 86.5309 27.8544C85.4666 28.2922 84.2982 28.511 83.0256 28.511L82.1407 28.4765C81.6201 28.4765 81.3598 28.7702 81.3598 29.3577L82.2448 37.289C82.2332 37.4848 82.1638 37.6634 82.0365 37.8246C81.9209 37.9974 81.7589 38.1472 81.5507 38.2739C81.354 38.4006 81.1168 38.4985 80.8392 38.5676C80.5731 38.6368 80.2955 38.6713 80.0063 38.6713C79.1734 38.6713 78.7222 38.4006 78.6528 37.8592C78.4098 35.7626 78.138 33.7697 77.8372 31.8805C77.548 29.9913 77.2472 28.2346 76.9349 26.6103C76.6341 24.9745 76.3391 23.4885 76.0499 22.1522C75.7607 20.8159 75.5004 19.6524 75.269 18.6618C75.0492 17.6711 74.8757 16.8647 74.7485 16.2426C74.6096 15.6206 74.5402 15.2174 74.5402 15.0331ZM80.1798 19.5949C80.1798 20.3436 80.2087 21.0866 80.2666 21.8239C80.3244 22.5496 80.417 23.3387 80.5442 24.1912C80.6136 24.7096 80.897 25.0033 81.3945 25.0724C81.6953 25.1415 82.0308 25.2107 82.4009 25.2798C82.7827 25.3374 83.1008 25.3662 83.3553 25.3662C84.0957 25.3662 84.7667 25.2567 85.3682 25.0379C85.9698 24.819 86.4846 24.508 86.9126 24.1048C87.3406 23.6901 87.6703 23.2005 87.9017 22.636C88.1331 22.0716 88.2488 21.4437 88.2488 20.7526C88.2488 19.9116 88.1331 19.1283 87.9017 18.4026C87.6703 17.6653 87.3522 17.026 86.9473 16.4846C86.554 15.9431 86.0855 15.5169 85.5418 15.2059C85.0096 14.8949 84.4312 14.7393 83.8065 14.7393C83.2628 14.7393 82.7653 14.8603 82.3142 15.1022C81.8746 15.3326 81.4928 15.6609 81.1689 16.0871C80.8566 16.5018 80.6136 17.0087 80.4401 17.6077C80.2666 18.2067 80.1798 18.8691 80.1798 19.5949Z" fill="#5C370A"/>
<path d="M52.5372 27.8371C52.4562 26.305 52.3231 24.8939 52.138 23.6037C51.9645 22.3019 51.7794 21.1673 51.5828 20.1996C51.3977 19.232 51.2299 18.4486 51.0795 17.8496C50.9407 17.2506 50.8713 16.8762 50.8713 16.7264C50.8713 16.5076 50.9523 16.2945 51.1142 16.0871C51.2878 15.8798 51.5018 15.7012 51.7563 15.5514C52.0108 15.3902 52.2827 15.2635 52.5719 15.1713C52.8726 15.0791 53.1445 15.0331 53.3874 15.0331C53.5841 15.0331 53.7518 15.0676 53.8907 15.1367C54.041 15.2059 54.1452 15.3211 54.203 15.4823C54.2608 15.6782 54.3129 15.8855 54.3592 16.1044C54.417 16.3117 54.4749 16.5652 54.5327 16.8647C54.6021 17.2909 54.6947 17.504 54.8103 17.504C54.9376 17.504 55.0822 17.3139 55.2442 16.9338C55.4755 16.4039 55.7242 15.9662 55.9903 15.6206C56.2564 15.275 56.5398 15.0043 56.8406 14.8084C57.1529 14.6011 57.4711 14.4571 57.795 14.3764C58.1305 14.2958 58.4775 14.2555 58.8361 14.2555C59.9236 14.2555 60.8433 14.6817 61.5952 15.5342C62.3587 16.3866 62.9545 17.6192 63.3825 19.232C63.4404 19.4163 63.4924 19.5372 63.5387 19.5948C63.585 19.6409 63.637 19.6639 63.6949 19.6639C63.7527 19.6639 63.8105 19.6409 63.8684 19.5948C63.9378 19.5372 64.0014 19.4278 64.0593 19.2665C64.3369 18.5177 64.6608 17.8842 65.031 17.3658C65.4012 16.8359 65.783 16.4097 66.1763 16.0871C66.5812 15.753 66.9919 15.5111 67.4083 15.3614C67.8248 15.2116 68.2239 15.1367 68.6056 15.1367C69.3113 15.1367 69.9476 15.3959 70.5144 15.9143C71.0928 16.4212 71.6019 17.2103 72.0415 18.2816C72.4926 19.3414 72.8802 20.6892 73.2041 22.325C73.5396 23.9492 73.8172 25.8788 74.037 28.1136C74.037 28.7356 73.8461 29.1676 73.4644 29.4095C73.0826 29.663 72.562 29.7897 71.9026 29.7897C71.4746 29.7897 71.1391 29.6975 70.8962 29.5132C70.6532 29.3289 70.5144 29.087 70.4797 28.7875C70.3293 27.1863 70.1616 25.7636 69.9765 24.5195C69.803 23.2638 69.6121 22.2098 69.4039 21.3573C69.1956 20.4934 68.9643 19.8367 68.7098 19.3875C68.4668 18.9382 68.195 18.7136 67.8942 18.7136C67.7438 18.7136 67.5529 18.823 67.3216 19.0419C67.1018 19.2608 66.8646 19.6639 66.6101 20.2514C66.3556 20.8274 66.0895 21.6223 65.8119 22.636C65.5342 23.6382 65.2682 24.9226 65.0137 26.4893C64.9443 26.9271 64.7302 27.2611 64.3716 27.4915C64.0246 27.7219 63.5965 27.8371 63.0875 27.8371C62.4975 27.8371 62.0869 27.745 61.8555 27.5606C61.6357 27.3763 61.5142 27.0653 61.4911 26.6276C61.4448 25.8673 61.3638 25.1127 61.2482 24.3639C61.144 23.6037 61.011 22.8837 60.849 22.204C60.6871 21.5128 60.5078 20.8793 60.3111 20.3033C60.1144 19.7158 59.9062 19.2089 59.6864 18.7827C59.4666 18.345 59.241 18.0051 59.0097 17.7632C58.7783 17.5213 58.5527 17.4003 58.3329 17.4003C58.0437 17.4003 57.7603 17.6019 57.4826 18.0051C57.2166 18.4083 56.9736 18.9785 56.7538 19.7158C56.5456 20.453 56.3779 21.3401 56.2506 22.3768C56.1234 23.4136 56.0597 24.5713 56.0597 25.85C56.0597 26.0689 56.0655 26.2877 56.0771 26.5066C56.0887 26.7139 56.0944 26.9328 56.0944 27.1632C56.0944 27.5088 56.0366 27.791 55.9209 28.0099C55.8168 28.2288 55.6606 28.4016 55.4524 28.5283C55.2557 28.655 55.0244 28.7414 54.7583 28.7875C54.4922 28.8336 54.203 28.8566 53.8907 28.8566C53.6014 28.8566 53.3701 28.8336 53.1966 28.7875C53.023 28.7529 52.89 28.6953 52.7974 28.6147C52.7049 28.534 52.6413 28.4246 52.6066 28.2864C52.5719 28.1597 52.5487 28.0099 52.5372 27.8371Z" fill="#5C370A"/>
<path d="M32.7552 21.3573C32.7552 21.1615 32.7783 20.9426 32.8246 20.7007C32.8709 20.4588 32.894 20.1938 32.894 19.9058C32.894 19.71 32.8073 19.5602 32.6337 19.4566C32.4718 19.3529 32.2867 19.2377 32.0784 19.111C31.8702 18.9843 31.6793 18.823 31.5058 18.6272C31.3439 18.4313 31.2629 18.1491 31.2629 17.7805C31.2629 17.5155 31.3323 17.2506 31.4711 16.9856C31.6215 16.7207 31.8355 16.4788 32.1132 16.2599C32.7957 15.753 33.5014 15.298 34.2302 14.8948C34.9705 14.4916 35.7051 14.1518 36.4339 13.8753C37.1743 13.5989 37.9031 13.3857 38.6204 13.236C39.3376 13.0862 40.0259 13.0114 40.6853 13.0114C41.7959 13.0114 42.837 13.2187 43.8088 13.6334C44.7921 14.0366 45.6424 14.5953 46.3596 15.3095C47.0884 16.0122 47.6611 16.8416 48.0775 17.7977C48.5056 18.7424 48.7196 19.7561 48.7196 20.8389C48.7196 21.8987 48.494 22.9067 48.0428 23.8628C47.6032 24.8074 47.0075 25.6368 46.2555 26.3511C45.5036 27.0653 44.6186 27.6297 43.6006 28.0444C42.5941 28.4707 41.5298 28.6838 40.4077 28.6838C39.3087 28.6838 38.2907 28.4995 37.3536 28.1308C36.4166 27.7622 35.6068 27.2553 34.9243 26.6103C34.2417 25.9536 33.7096 25.1818 33.3278 24.2948C32.9461 23.3963 32.7552 22.4171 32.7552 21.3573ZM40.7894 25.5735C41.2753 25.5735 41.7785 25.4756 42.2991 25.2797C42.8197 25.0839 43.294 24.8017 43.722 24.433C44.1616 24.0529 44.5202 23.5921 44.7979 23.0507C45.0871 22.5093 45.2317 21.8987 45.2317 21.2191C45.2317 20.5279 45.1045 19.8828 44.8499 19.2838C44.5954 18.6848 44.2426 18.1664 43.7914 17.7286C43.3518 17.2794 42.8255 16.928 42.2124 16.6746C41.6108 16.4212 40.9572 16.2944 40.2515 16.2944C38.9674 16.2944 37.9841 16.6285 37.3016 17.2966C36.619 17.9533 36.2778 18.967 36.2778 20.3378C36.2778 21.0866 36.3877 21.7835 36.6075 22.4286C36.8388 23.0622 37.157 23.6152 37.5619 24.0875C37.9668 24.5482 38.4411 24.9111 38.9848 25.1761C39.5401 25.441 40.1416 25.5735 40.7894 25.5735Z" fill="#5C370A"/>
<path d="M29.3368 14.169C28.9087 14.169 28.5327 14.2842 28.2088 14.5146C27.8849 14.7335 27.6073 15.0445 27.3759 15.4477C27.1445 15.8394 26.9537 16.3059 26.8033 16.8473C26.6529 17.3772 26.5314 17.959 26.4389 18.5926C26.3463 19.2261 26.2827 19.8885 26.248 20.5797C26.2133 21.2709 26.1959 21.9678 26.1959 22.6705C26.1959 23.5921 26.2306 24.5021 26.3 25.4007C26.381 26.2877 26.4215 27.1113 26.4215 27.8716C26.4215 28.367 26.2364 28.7529 25.8662 29.0293C25.496 29.3173 24.9697 29.4613 24.2871 29.4613C24.1599 29.4613 24.0153 29.4498 23.8533 29.4268C23.6914 29.4037 23.5352 29.3576 23.3848 29.2885C23.246 29.2194 23.1187 29.1215 23.0031 28.9948C22.8989 28.8796 22.8411 28.7183 22.8295 28.5109C22.7254 27.4972 22.575 26.4605 22.3784 25.4007C22.1817 24.3408 21.933 23.2868 21.6322 22.2385C21.343 21.1787 20.9902 20.1304 20.5737 19.0937C20.1688 18.0569 19.7003 17.0432 19.1681 16.0525C19.0756 15.8797 18.9946 15.7184 18.9252 15.5687C18.8674 15.4189 18.8384 15.2749 18.8384 15.1367C18.8384 14.9639 18.9136 14.7796 19.064 14.5837C19.226 14.3764 19.4226 14.1863 19.654 14.0135C19.8969 13.8407 20.1572 13.7025 20.4349 13.5988C20.7241 13.4836 21.0017 13.426 21.2678 13.426C21.7074 13.426 22.0949 13.7313 22.4304 14.3418C22.7659 14.9408 23.0783 15.9027 23.3675 17.2275C23.4253 17.4579 23.4716 17.6192 23.5063 17.7113C23.541 17.8035 23.5873 17.8496 23.6451 17.8496C23.7724 17.8496 23.8533 17.6537 23.888 17.2621C24.0269 16.1677 24.264 15.2288 24.5995 14.4455C24.935 13.6507 25.3514 12.9998 25.8489 12.4929C26.3579 11.9746 26.9363 11.5944 27.5841 11.3525C28.2435 11.1106 28.9666 10.9896 29.7532 10.9896C30.2044 10.9896 30.6613 11.0299 31.1241 11.1106C31.5868 11.1912 32.0033 11.3122 32.3735 11.4734C32.7436 11.6347 33.0444 11.8306 33.2758 12.0609C33.5072 12.2913 33.6228 12.5505 33.6228 12.8385C33.6228 13.0459 33.5766 13.2935 33.484 13.5815C33.403 13.858 33.2931 14.1287 33.1543 14.3937C33.0155 14.6471 32.8535 14.866 32.6684 15.0503C32.4949 15.2231 32.3156 15.3095 32.1305 15.3095C31.9223 15.3095 31.7198 15.2519 31.5232 15.1367C31.3265 15.01 31.1125 14.8775 30.8811 14.7393C30.6613 14.601 30.4242 14.4743 30.1697 14.3591C29.9267 14.2324 29.6491 14.169 29.3368 14.169Z" fill="#5C370A"/>
<path d="M0.75705 15.0331C0.75705 14.5838 0.959496 14.244 1.36439 14.0136C1.76928 13.7717 2.3477 13.6507 3.09965 13.6507C3.27317 13.6507 3.42935 13.6738 3.56817 13.7199C3.70699 13.7659 3.82846 13.8581 3.93257 13.9963C4.04825 14.123 4.15237 14.3016 4.24492 14.532C4.33746 14.7624 4.43001 15.0561 4.52256 15.4132C4.61511 15.8164 4.70765 16.018 4.8002 16.018C4.88118 16.018 4.97951 15.851 5.09519 15.5169C5.30342 14.8603 5.57528 14.2901 5.91077 13.8062C6.25782 13.3109 6.64536 12.902 7.07339 12.5794C7.50142 12.2453 7.96415 11.9977 8.46159 11.8364C8.9706 11.6751 9.50275 11.5945 10.058 11.5945C11.1802 11.5945 12.2271 11.8076 13.1988 12.2338C14.1706 12.6485 15.0093 13.2303 15.715 13.979C16.4206 14.7163 16.9759 15.5918 17.3808 16.6055C17.7857 17.6077 17.9882 18.6963 17.9882 19.8713C17.9882 21.1154 17.7684 22.2674 17.3288 23.3272C16.9007 24.387 16.2992 25.3028 15.5241 26.0746C14.749 26.8349 13.8235 27.4282 12.7477 27.8544C11.6834 28.2922 10.515 28.511 9.24246 28.511L8.35748 28.4765C7.8369 28.4765 7.57661 28.7702 7.57661 29.3577L8.46159 37.289C8.45003 37.4848 8.38062 37.6634 8.25336 37.8246C8.13768 37.9974 7.97572 38.1472 7.76749 38.2739C7.57083 38.4006 7.33368 38.4985 7.05604 38.5676C6.78996 38.6368 6.51232 38.6713 6.22311 38.6713C5.39019 38.6713 4.93902 38.4006 4.86961 37.8592C4.62667 35.7626 4.35482 33.7697 4.05404 31.8805C3.76483 29.9913 3.46405 28.2346 3.15171 26.6103C2.85093 24.9745 2.55593 23.4885 2.26672 22.1522C1.97751 20.8159 1.71723 19.6524 1.48586 18.6618C1.26606 17.6711 1.09253 16.8647 0.96528 16.2426C0.82646 15.6206 0.75705 15.2174 0.75705 15.0331ZM6.39664 19.5949C6.39664 20.3436 6.42556 21.0866 6.4834 21.8239C6.54124 22.5496 6.63379 23.3387 6.76104 24.1912C6.83045 24.7096 7.11388 25.0033 7.61132 25.0724C7.9121 25.1415 8.24758 25.2107 8.61777 25.2798C8.99952 25.3374 9.31765 25.3662 9.57216 25.3662C10.3125 25.3662 10.9835 25.2567 11.5851 25.0379C12.1866 24.819 12.7014 24.508 13.1294 24.1048C13.5575 23.6901 13.8872 23.2005 14.1185 22.636C14.3499 22.0716 14.4656 21.4437 14.4656 20.7526C14.4656 19.9116 14.3499 19.1283 14.1185 18.4026C13.8872 17.6653 13.569 17.026 13.1641 16.4846C12.7708 15.9431 12.3023 15.5169 11.7586 15.2059C11.2264 14.8949 10.648 14.7393 10.0233 14.7393C9.47961 14.7393 8.98217 14.8603 8.531 15.1022C8.09141 15.3326 7.70965 15.6609 7.38573 16.0871C7.07339 16.5018 6.83045 17.0087 6.65693 17.6077C6.4834 18.2067 6.39664 18.8691 6.39664 19.5949Z" fill="#5C370A"/>
<path fill-rule="evenodd" clip-rule="evenodd" d="M100.548 35.4165C77.5621 33.8437 31.6246 36.0584 6.14105 38.6958L5.85403 35.9459C33.4939 33.0853 85.4014 30.6912 106.144 33.1481C106.945 33.243 107.678 33.4687 108.238 33.8727C108.808 34.2831 109.33 35.0023 109.194 35.9288C109.066 36.7937 108.431 37.3469 107.854 37.643C107.252 37.9522 106.509 38.104 105.696 38.1183C101.509 38.1917 97.4187 38.202 93.3175 38.2122C71.1681 38.2677 48.711 38.3239 9.11574 48.3398L8.43217 45.6602C48.3716 35.5572 71.1344 35.5014 93.3263 35.4469C95.7331 35.441 98.1332 35.4351 100.548 35.4165Z" fill="#5C370A"/>
</svg>
