<svg width="37" height="37" viewBox="0 0 37 37" fill="none" xmlns="http://www.w3.org/2000/svg">
<path d="M21.5779 18.3427L36.0154 3.92813C36.4469 3.4966 36.6893 2.91132 36.6893 2.30104C36.6893 1.69077 36.4469 1.10549 36.0154 0.67396C35.5838 0.242431 34.9986 0 34.3883 0C33.778 0 33.1927 0.242431 32.7612 0.67396L18.3466 15.1115L3.93204 0.67396C3.50051 0.242431 2.91523 5.41829e-07 2.30495 5.46376e-07C1.69468 5.50923e-07 1.1094 0.242431 0.677871 0.67396C0.246342 1.10549 0.00391151 1.69077 0.00391151 2.30104C0.0039115 2.91132 0.246342 3.4966 0.677871 3.92813L15.1154 18.3427L0.677871 32.7573C0.463077 32.9703 0.29259 33.2238 0.176246 33.5031C0.0599007 33.7823 0 34.0818 0 34.3844C0 34.6869 0.0599007 34.9864 0.176246 35.2657C0.29259 35.545 0.463077 35.7984 0.677871 36.0115C0.890911 36.2263 1.14437 36.3967 1.42363 36.5131C1.70289 36.6294 2.00243 36.6893 2.30495 36.6893C2.60748 36.6893 2.90702 36.6294 3.18628 36.5131C3.46554 36.3967 3.719 36.2263 3.93204 36.0115L18.3466 21.574L32.7612 36.0115C32.9742 36.2263 33.2277 36.3967 33.507 36.5131C33.7862 36.6294 34.0858 36.6893 34.3883 36.6893C34.6908 36.6893 34.9904 36.6294 35.2696 36.5131C35.5489 36.3967 35.8023 36.2263 36.0154 36.0115C36.2302 35.7984 36.4007 35.545 36.517 35.2657C36.6333 34.9864 36.6932 34.6869 36.6932 34.3844C36.6932 34.0818 36.6333 33.7823 36.517 33.5031C36.4007 33.2238 36.2302 32.9703 36.0154 32.7573L21.5779 18.3427Z" fill="#5C370A"/>
</svg>
