<svg width="55" height="55" viewBox="0 0 55 55" fill="none" xmlns="http://www.w3.org/2000/svg">
<path d="M30.7312 27.4999L45.1687 13.0854C45.6002 12.6538 45.8427 12.0685 45.8427 11.4583C45.8427 10.848 45.6002 10.2627 45.1687 9.83119C44.7372 9.39966 44.1519 9.15723 43.5416 9.15723C42.9313 9.15723 42.3461 9.39966 41.9145 9.83119L27.4999 24.2687L13.0854 9.83119C12.6538 9.39966 12.0685 9.15723 11.4583 9.15723C10.848 9.15723 10.2627 9.39966 9.83119 9.83119C9.39966 10.2627 9.15723 10.848 9.15723 11.4583C9.15723 12.0685 9.39966 12.6538 9.83119 13.0854L24.2687 27.4999L9.83119 41.9145C9.6164 42.1276 9.44591 42.381 9.32957 42.6603C9.21322 42.9395 9.15332 43.2391 9.15332 43.5416C9.15332 43.8441 9.21322 44.1437 9.32957 44.4229C9.44591 44.7022 9.6164 44.9556 9.83119 45.1687C10.0442 45.3835 10.2977 45.554 10.577 45.6703C10.8562 45.7867 11.1557 45.8466 11.4583 45.8466C11.7608 45.8466 12.0603 45.7867 12.3396 45.6703C12.6189 45.554 12.8723 45.3835 13.0854 45.1687L27.4999 30.7312L41.9145 45.1687C42.1276 45.3835 42.381 45.554 42.6603 45.6703C42.9395 45.7867 43.2391 45.8466 43.5416 45.8466C43.8441 45.8466 44.1437 45.7867 44.4229 45.6703C44.7022 45.554 44.9557 45.3835 45.1687 45.1687C45.3835 44.9556 45.554 44.7022 45.6703 44.4229C45.7867 44.1437 45.8466 43.8441 45.8466 43.5416C45.8466 43.2391 45.7867 42.9395 45.6703 42.6603C45.554 42.381 45.3835 42.1276 45.1687 41.9145L30.7312 27.4999Z" fill="#5C370A"/>
</svg>
